<?xml version="1.0" encoding="UTF-8" standalone="no"?>
<!-- Generator: Adobe Illustrator 17.1.0, SVG Export Plug-In . SVG Version: 6.00 Build 0)  -->

<svg
   xmlns:dc="http://purl.org/dc/elements/1.1/"
   xmlns:cc="http://creativecommons.org/ns#"
   xmlns:rdf="http://www.w3.org/1999/02/22-rdf-syntax-ns#"
   xmlns:svg="http://www.w3.org/2000/svg"
   xmlns="http://www.w3.org/2000/svg"
   xmlns:sodipodi="http://sodipodi.sourceforge.net/DTD/sodipodi-0.dtd"
   xmlns:inkscape="http://www.inkscape.org/namespaces/inkscape"
   version="1.1"
   id="Layer_1"
   x="0px"
   y="0px"
   viewBox="0 0 16 16"
   enable-background="new 0 0 114.4 23"
   xml:space="preserve"
   inkscape:version="0.91 r13725"
   sodipodi:docname="make_salt_lake_logo_favicon.svg"
   inkscape:export-filename="/Users/aboyd/Downloads/make_salt_lake_logo_favicon.png"
   inkscape:export-xdpi="2880"
   inkscape:export-ydpi="2880"
   width="16"
   height="16"><metadata
     id="metadata123"><rdf:RDF><cc:Work
         rdf:about=""><dc:format>image/svg+xml</dc:format><dc:type
           rdf:resource="http://purl.org/dc/dcmitype/StillImage" /><dc:title></dc:title></cc:Work></rdf:RDF></metadata><defs
     id="defs121" /><sodipodi:namedview
     pagecolor="#ffffff"
     bordercolor="#666666"
     borderopacity="1"
     objecttolerance="10"
     gridtolerance="10"
     guidetolerance="10"
     inkscape:pageopacity="0"
     inkscape:pageshadow="2"
     inkscape:window-width="1488"
     inkscape:window-height="897"
     id="namedview119"
     showgrid="false"
     inkscape:zoom="14.241031"
     inkscape:cx="4.3652198"
     inkscape:cy="12.282846"
     inkscape:window-x="0"
     inkscape:window-y="0"
     inkscape:window-maximized="0"
     inkscape:current-layer="g35" /><g
     id="g3"
     transform="matrix(1.1102847,0,0,1.1102847,25.573034,0.1824436)"><g
       id="g5"><g
         id="g7"><path
           id="path5081"
           d="m -14.3,6.6 2.8,-2.8 c 0,-0.1 -3.3,2.3 -2.8,2.8 l 2.8,-2.7 -2.7,3.2 c 0,0 2.4,-3.1 2.8,-2.8 l -2.8,2.9 2.6,-2.6 c 0.3,0.3 -2.8,2.6 -2.7,2.7 l 2.7,-2.7 c 0.3,0.3 -3.1,2.6 -2.7,2.9 0,0 2.6,-2.9 2.8,-2.8 0.5,0.6 -2.7,3.1 -2.7,3.1 0.1,0.1 2.7,-2.7 2.7,-2.7 0.4,0.4 -3.2,2.5 -2.7,3 0.5,0.5 2.5,-2.9 2.7,-2.7 l -2.6,3 c 0.2,0.2 2.6,-2.6 2.6,-2.6 0,0 -2.6,3.1 -2.6,3.1 0,0 2.4,-2.8 2.6,-2.6 0.4,0.4 -2.9,2.8 -2.7,3.1 0,0 2.2,-3 2.6,-2.6 0.4,0.4 -2.6,2.6 -2.6,2.6 0.2,0.1 2.7,-2.6 2.7,-2.6 0.5,0.5 -2.7,2.9 -2.7,2.9 0,0 2.2,-3 2.6,-2.6 0,0 -3.2,2.6 -2.6,3.1 0,0 2.2,-2.9 2.6,-2.6 0.3,0.4 -2.4,2.9 -2.4,2.9 0.4,0.4 2.6,-2.6 2.6,-2.6 0,0 -3.1,2.6 -2.7,3.1 l 2.5,-2.5 -2.5,3 c 0.3,0.2 2.5,-2.5 2.5,-2.5 0,0 -2.5,2.5 -2.5,2.5 0,0 2.3,-2.6 2.5,-2.5 l -2.5,2.9 c 0.1,0 2.6,-2.6 2.6,-2.6 0,0 -2.9,2.7 -2.6,3 0.2,0.2 2.2,-2.8 2.5,-2.5 l -2.4,2.9 2.5,-2.5 -2.5,2.5 c 0.4,0.4 1.9,-2.9 2.4,-2.4 0,0 -2.4,2.9 -2.4,2.9 0,0 2.1,-2.8 2.4,-2.4 l -2.5,2.7 c 0.1,0.1 2.3,-2.9 2.6,-2.6 0.3,0.3 -3,2.6 -2.6,3 l 2.5,-2.5 -2.4,2.5 c 0.3,0.3 2.4,-2.5 2.4,-2.4 0.2,0.2 -2.3,2.2 -2.2,2.3 0.3,0.3 2.1,-2.1 2.1,-2.1 0,0 -1.7,2.1 -1.6,2.1 l 1.6,-1.6 c 0.1,0.1 -1.2,1.5 -1.2,1.5 0.1,0.1 1.1,-1.5 1.3,-1.3 l -0.9,1.3 0.9,-0.9 c 0.1,0.1 -0.9,1 -0.9,1 0.1,0.1 0.9,-0.9 0.9,-0.9 0.1,0.1 -0.9,1 -0.9,1 l 1,-0.9 c 0.1,0.1 -0.9,0.8 -0.8,0.9 0.1,0.1 0.7,-0.8 0.8,-0.8 0,0 -0.6,0.8 -0.6,0.8 0,0 0.6,-0.6 0.6,-0.6 l -0.5,0.6 0.5,-0.5 c 0,0.1 -0.5,0.5 -0.5,0.5 0,0 0.3,-0.3 0.3,-0.3 0,0 0,0.3 0,0.3 l 0,0"
           inkscape:connector-curvature="0"
           style="fill:none;stroke:#ee8c22;stroke-width:0.1876;stroke-linecap:round;stroke-linejoin:round" /><path
           id="path5083"
           d="m -16.6,6.7 5,-5 c 0.2,0.1 -5,5 -5,5 0,0 4.6,-5.5 5.1,-5 l -5,5.4 c 0,0 4.9,-5.1 5,-5 0,0 -5.5,4.4 -4.9,5 0.8,0.8 4.4,-5.4 4.9,-4.9 0.4,0.4 -5.3,4.6 -4.8,5.1 l 4.9,-4.9 c 0.4,0.4 -5.5,4.5 -4.8,5.2 l 4.8,-4.8 c 0,0 -4.9,4.9 -4.8,5 0,0 4.7,-4.9 4.8,-4.8 l -4.9,5 c 0,0 4.7,-4.8 4.7,-4.7 0.7,0.7 -4.5,4.8 -4.5,4.8 0.6,0.6 4.5,-4.5 4.5,-4.5 0.3,0.3 -4.8,4.3 -4.4,4.6 0,0 1.4,-1.9 1.7,-1.7 l -1.6,2 c 0.1,0.1 1.2,-1.3 1.2,-1.2 l -1.2,1.3 c 0,0 1,-1.3 1.2,-1.2 l -1.2,1.4 1.1,-1.1 -1.1,1.2 1.1,-1.1 c 0.2,0.2 -1,1.3 -1,1.3 l 0.6,-0.6 c 0.2,0.1 -0.4,0.7 -0.4,0.7 0,0 0.2,-0.3 0.2,-0.2 0,0 -0.2,0.3 -0.2,0.3 0,0 0.1,-0.1 0.1,-0.1"
           inkscape:connector-curvature="0"
           style="fill:none;stroke:#ee8c22;stroke-width:0.1876;stroke-linecap:round;stroke-linejoin:round" /><path
           id="path5085"
           d="m -14.4,1.1 c 0,0 0.2,-0.2 0.2,-0.2 0.2,0.1 -0.5,0.9 -0.5,0.9 0.1,0.1 0.9,-0.9 0.9,-0.9 0,0 -1.1,1.3 -1,1.4 0.1,0.1 1.4,-1.4 1.4,-1.4 0.3,0.3 -1.6,2.1 -1.6,2.1 0,0 2.1,-2.1 2.1,-2.1 0.1,0.1 -2.6,2.4 -2.3,2.7 0.5,0.5 2.8,-2.8 2.8,-2.8 0.1,0.2 -3.4,2.5 -2.9,2.9 l 2.9,-2.9"
           inkscape:connector-curvature="0"
           style="fill:none;stroke:#ee8c22;stroke-width:0.1876;stroke-linecap:round;stroke-linejoin:round" /><path
           id="path5087"
           d="m -19.3,1.1 c 0,0 0.1,-0.1 0,0 l 0,0.3 c 0,0 0.5,-0.5 0.5,-0.5 0.2,0.1 -0.6,0.8 -0.5,0.9 0.1,0.1 0.6,-1 0.8,-0.8 0.1,0 -0.9,1.2 -0.8,1.2 0,0 1.2,-1.2 1.2,-1.2 0,0 -1.3,1 -1.1,1.1 0.2,0.2 1.1,-1.2 1.2,-1.2 0,0 -1.6,1.5 -1.3,1.7 L -17.7,1 c 0.3,0.3 -2,1.5 -1.7,1.8 0.3,0.2 1.9,-1.8 1.9,-1.8 l -1.7,2.2 c 0,0 2.2,-2.2 2.2,-2.2 l -2.3,2.3 c 0.5,0.5 2.4,-2.4 2.4,-2.4 0.5,0.5 -2.4,2.6 -2.4,2.6 l 2.6,-2.6 c 0.2,0.2 -2.6,3 -2.6,3 0.3,0.4 2.7,-2.6 2.7,-2.6 0.3,0.3 -2.8,2.7 -2.7,2.8 0,0 2.5,-3.1 2.8,-2.8 0,0 -2.8,2.9 -2.8,3 l 2.8,-2.8 c 0.2,0.2 -2.8,3.2 -2.8,3.2 0.3,0.3 3,-3 3,-3 l -3,3.4 3.1,-3.1 c 0.5,0.5 -3.2,3.5 -3.2,3.5 0.4,0.3 2.8,-3.6 3.2,-3.2 0.6,0.6 -3.1,3.4 -3.1,3.4 0,0 2.9,-3.6 3.2,-3.2 l -3.2,3.3 3.3,-3.3 c 0.6,0.6 -3.6,3.3 -3.3,3.6 0.1,0 3.3,-3.4 3.3,-3.4 0.5,0.5 -3.3,3.7 -3.3,3.7 0.1,0.1 3.4,-3.4 3.4,-3.4 l -3.4,3.7 c 0,0 3.2,-3.8 3.5,-3.5 0.7,0.7 -3.6,4 -3.6,4 0,0 3.4,-4.1 3.8,-3.7 l -3.8,3.8 c 0,0 3.2,-4.3 3.8,-3.8 0,0 -4,3.6 -3.7,3.8 0.3,0.4 3.1,-4.2 3.7,-3.6 l -3.7,3.8 c 0,0 3.8,-3.8 3.8,-3.8 0.7,0.7 -3.8,4 -3.8,4 0.1,0.1 3.9,-3.9 3.9,-3.9 0,0 -4.8,3.4 -3.9,4.2 1.3,1.3 6.3,-8.2 7.2,-7.2 l -7.2,7.6 7.6,-7.6 c 0.1,0.1 -8.8,6.6 -7.6,7.9 1.4,1.3 7.8,-7.8 7.8,-7.8 0.7,0.8 -8.4,7.5 -7.7,8.1 0.1,0.1 7.7,-7.7 7.7,-7.7 l -7.7,8 c 0.1,0.1 2.4,-2.9 2.6,-2.6 0.2,0.2 -2.7,2.7 -2.7,2.7 0.2,0.2 2.6,-2.6 2.6,-2.6 l -2.6,3.1 2.7,-2.7 c 0.3,0.3 -2.7,2.8 -2.7,2.8 0,0 2.6,-2.6 2.6,-2.6 0,0 -2.5,2.6 -2.5,2.6 0,0 2.6,-2.6 2.6,-2.6 l -2.6,2.9 c 0,0 2.5,-2.8 2.6,-2.6 l -2.6,3.1 c 0.4,0.4 2.2,-2.9 2.6,-2.6 0.1,0.1 -2.6,3 -2.6,3 0,0 2.5,-2.6 2.6,-2.6 0.1,0.1 -2.7,2.4 -2.5,2.6 l 2.6,-2.6 c 0.3,0.3 -3,2.7 -2.6,3.1 l 2.5,-2.5 c 0,0 -2.6,2.8 -2.5,2.9 0.4,0.4 2.2,-2.9 2.5,-2.5 0.4,0.4 -2.5,2.7 -2.5,2.7 0.1,0.1 2.6,-2.6 2.6,-2.6 0,0 -2.9,2.8 -2.6,3.1 0.5,0.5 2.1,-3 2.6,-2.6 0.3,0.3 -2.9,2.4 -2.5,2.8 0.1,0.1 2.4,-2.4 2.4,-2.4 0.1,0.1 -2.9,2.2 -2.5,2.6 0.2,0.2 2.5,-2.5 2.5,-2.5 0.2,0.2 -3.1,2.2 -2.6,2.7 0.1,0.1 2.3,-3 2.6,-2.6 0,0 -3,2.4 -2.5,2.9 0.4,0.4 2.1,-2.7 2.4,-2.4 0.4,0.4 -2.7,2.2 -2.3,2.6 0.2,0.2 1.9,-2.7 2.3,-2.3 0,0 -2.5,2.1 -2.3,2.4 l 2.3,-2.3 c 0.4,0.3 -2.4,2.1 -2.3,2.2 0,0 2,-2.7 2.4,-2.4 l -1.9,2.3 1.8,-1.8 c 0,0 -1.8,1.9 -1.8,1.9 0,0 1.7,-1.8 1.7,-1.7 0.1,0.1 -1.4,1.7 -1.4,1.7 0.1,0.1 1.3,-1.7 1.5,-1.5 l -1.4,1.6 c 0.2,0.2 1.4,-1.5 1.5,-1.5 0,0 -1.5,1.3 -1.4,1.4 0.3,0.3 1.4,-1.4 1.4,-1.4 0,0 -0.9,1.4 -0.9,1.4 0.1,0.1 0.9,-0.9 0.9,-0.9 0.1,0.1 -0.7,0.9 -0.7,0.9 0,0 0.7,-0.9 0.8,-0.8 0,0 -0.9,0.7 -0.8,0.8 0.1,0.1 0.8,-0.8 0.8,-0.8 0.1,0.1 -0.5,0.7 -0.5,0.7 0,0 0.5,-0.5 0.5,-0.5 0,0 -0.6,0.5 -0.5,0.6 l 0.4,-0.4 -0.1,0.4 0.1,-0.1"
           inkscape:connector-curvature="0"
           style="fill:none;stroke:#ee8c22;stroke-width:0.1876;stroke-linecap:round;stroke-linejoin:round" /></g></g></g><g
     id="g35"
     transform="translate(0,-7)"><g
       id="g37"
       transform="matrix(1.1102847,0,0,1.1102847,25.573034,7.1824436)"><path
         style="fill:none;stroke:#182b2d;stroke-width:0.1876;stroke-opacity:1"
         id="path5079"
         d="m -12.1,13.3 c -0.3,0 -0.7,-0.1 -1.1,-0.1 l -1.4,0 c 0,-0.2 0,-1.3 -0.1,-3.2 0,-1.9 -0.1,-3.3 -0.2,-4.1 -0.1,0.3 -0.2,0.6 -0.4,1 -0.4,1.3 -0.7,1.9 -0.8,1.9 -0.1,0 -0.2,-0.1 -0.3,-0.4 -0.1,-0.3 -0.2,-0.5 -0.3,-0.7 0,-0.2 -0.1,-0.4 -0.2,-0.5 0,-0.2 -0.1,-0.4 -0.2,-0.5 0,-0.2 -0.1,-0.4 -0.1,-0.5 -0.1,0.7 -0.1,1.7 -0.1,2.9 0,1.2 0,2.6 0.2,4.2 -0.4,0.1 -0.8,0.1 -1.3,0.1 l -1.4,0 c 0,0 -0.1,0 -0.1,-0.1 0,-0.1 0,-1.3 0,-3.6 0,-2.3 0,-5.4 0,-9.1 0,-0.1 0.3,-0.1 0.9,-0.1 l 1.4,0 c 0.2,0 0.3,0 0.3,0 l 0,0 c 0.2,0.1 0.4,0.5 0.7,1.3 0.2,0.8 0.4,1.2 0.5,1.4 0.1,0 0.1,0.1 0.1,0.1 0,0 0.1,-0.1 0.1,-0.2 0.1,-0.2 0.1,-0.4 0.2,-0.6 0.1,-0.3 0.2,-0.5 0.2,-0.8 0.3,-0.8 0.5,-1.2 0.7,-1.4 0.1,0 0.2,0 0.3,0 L -12,0.2 c 0,0.3 0,0.8 0,1.3 l 0,4 c 0,0.8 0,1.4 0,1.9 l -0.1,5.9 z"
         inkscape:connector-curvature="0" /></g></g></svg>