<?xml version="1.0" encoding="UTF-8" standalone="no"?>
<!-- Generator: Adobe Illustrator 17.1.0, SVG Export Plug-In . SVG Version: 6.00 Build 0)  -->

<svg
   xmlns:dc="http://purl.org/dc/elements/1.1/"
   xmlns:cc="http://creativecommons.org/ns#"
   xmlns:rdf="http://www.w3.org/1999/02/22-rdf-syntax-ns#"
   xmlns:svg="http://www.w3.org/2000/svg"
   xmlns="http://www.w3.org/2000/svg"
   xmlns:sodipodi="http://sodipodi.sourceforge.net/DTD/sodipodi-0.dtd"
   xmlns:inkscape="http://www.inkscape.org/namespaces/inkscape"
   version="1.1"
   id="Layer_1"
   x="0px"
   y="0px"
   viewBox="0 0 51.400001 50.999996"
   enable-background="new 0 0 114.4 23"
   xml:space="preserve"
   inkscape:version="0.91 r13725"
   sodipodi:docname="make_salt_lake_logo_square_white_padded_top_justified.svg"
   inkscape:export-filename="/Users/aboyd/Downloads/make_salt_lake_logo_square_black.png"
   inkscape:export-xdpi="4000"
   inkscape:export-ydpi="4000"
   width="51.400002"
   height="51"><metadata
     id="metadata123"><rdf:RDF><cc:Work
         rdf:about=""><dc:format>image/svg+xml</dc:format><dc:type
           rdf:resource="http://purl.org/dc/dcmitype/StillImage" /><dc:title></dc:title></cc:Work></rdf:RDF></metadata><defs
     id="defs121" /><sodipodi:namedview
     pagecolor="#ffffff"
     bordercolor="#666666"
     borderopacity="1"
     objecttolerance="10"
     gridtolerance="10"
     guidetolerance="10"
     inkscape:pageopacity="0"
     inkscape:pageshadow="2"
     inkscape:window-width="1488"
     inkscape:window-height="897"
     id="namedview119"
     showgrid="false"
     inkscape:zoom="7.1205156"
     inkscape:cx="-14.827538"
     inkscape:cy="17.559653"
     inkscape:window-x="0"
     inkscape:window-y="0"
     inkscape:window-maximized="0"
     inkscape:current-layer="g49"
     units="px" /><g
     id="g3"
     transform="translate(4.9998,5.9999981)"><g
       id="g5"><g
         id="g7"><path
           d="M 5.7,6.6 8.5,3.8 C 8.5,3.7 5.2,6.1 5.7,6.6 L 8.5,3.9 5.8,7.1 C 5.8,7.1 8.2,4 8.6,4.3 L 5.8,7.2 8.4,4.6 C 8.7,4.9 5.6,7.2 5.7,7.3 L 8.4,4.6 C 8.7,4.9 5.3,7.2 5.7,7.5 5.7,7.5 8.3,4.6 8.5,4.7 9,5.3 5.8,7.8 5.8,7.8 5.9,7.9 8.5,5.1 8.5,5.1 8.9,5.5 5.3,7.6 5.8,8.1 6.3,8.6 8.3,5.2 8.5,5.4 l -2.6,3 C 6.1,8.6 8.5,5.8 8.5,5.8 8.5,5.8 5.9,8.9 5.9,8.9 5.9,8.9 8.3,6.1 8.5,6.3 8.9,6.7 5.6,9.1 5.8,9.4 5.8,9.4 8,6.4 8.4,6.8 8.8,7.2 5.8,9.4 5.8,9.4 6,9.5 8.5,6.8 8.5,6.8 9,7.3 5.8,9.7 5.8,9.7 c 0,0 2.2,-3 2.6,-2.6 0,0 -3.2,2.6 -2.6,3.1 0,0 2.2,-2.9 2.6,-2.6 C 8.7,8 6,10.5 6,10.5 6.4,10.9 8.6,7.9 8.6,7.9 c 0,0 -3.1,2.6 -2.7,3.1 l 2.5,-2.5 -2.5,3 C 6.2,11.7 8.4,9 8.4,9 c 0,0 -2.5,2.5 -2.5,2.5 0,0 2.3,-2.6 2.5,-2.5 l -2.5,2.9 c 0.1,0 2.6,-2.6 2.6,-2.6 0,0 -2.9,2.7 -2.6,3 0.2,0.2 2.2,-2.8 2.5,-2.5 L 6,12.7 8.5,10.2 6,12.7 c 0.4,0.4 1.9,-2.9 2.4,-2.4 0,0 -2.4,2.9 -2.4,2.9 0,0 2.1,-2.8 2.4,-2.4 l -2.5,2.7 c 0.1,0.1 2.3,-2.9 2.6,-2.6 0.3,0.3 -3,2.6 -2.6,3 L 8.4,11.4 6,13.9 c 0.3,0.3 2.4,-2.5 2.4,-2.4 0.2,0.2 -2.3,2.2 -2.2,2.3 0.3,0.3 2.1,-2.1 2.1,-2.1 0,0 -1.7,2.1 -1.6,2.1 l 1.6,-1.6 c 0.1,0.1 -1.2,1.5 -1.2,1.5 0.1,0.1 1.1,-1.5 1.3,-1.3 l -0.9,1.3 0.9,-0.9 c 0.1,0.1 -0.9,1 -0.9,1 0.1,0.1 0.9,-0.9 0.9,-0.9 0.1,0.1 -0.9,1 -0.9,1 l 1,-0.9 c 0.1,0.1 -0.9,0.8 -0.8,0.9 0.1,0.1 0.7,-0.8 0.8,-0.8 0,0 -0.6,0.8 -0.6,0.8 0,0 0.6,-0.6 0.6,-0.6 L 8,13.9 8.5,13.4 c 0,0.1 -0.5,0.5 -0.5,0.5 0,0 0.3,-0.3 0.3,-0.3 0,0 0,0.3 0,0.3 l 0,0"
           id="path9"
           inkscape:connector-curvature="0"
           style="fill:none;stroke:#ee8c22;stroke-width:0.1876;stroke-linecap:round;stroke-linejoin:round" /><path
           d="m 3.4,6.7 5,-5 c 0.2,0.1 -5,5 -5,5 0,0 4.6,-5.5 5.1,-5 l -5,5.4 c 0,0 4.9,-5.1 5,-5 0,0 -5.5,4.4 -4.9,5 C 4.4,7.9 8,1.7 8.5,2.2 8.9,2.6 3.2,6.8 3.7,7.3 L 8.6,2.4 C 9,2.8 3.1,6.9 3.8,7.6 L 8.6,2.8 c 0,0 -4.9,4.9 -4.8,5 0,0 4.7,-4.9 4.8,-4.8 L 3.7,8 C 3.7,8 8.4,3.2 8.4,3.3 9.1,4 3.9,8.1 3.9,8.1 4.5,8.7 8.4,3.6 8.4,3.6 8.7,3.9 3.6,7.9 4,8.2 4,8.2 5.4,6.3 5.7,6.5 l -1.6,2 C 4.2,8.6 5.3,7.2 5.3,7.3 L 4.1,8.6 c 0,0 1,-1.3 1.2,-1.2 L 4.1,8.8 5.2,7.7 4.1,8.9 5.2,7.8 C 5.4,8 4.2,9.1 4.2,9.1 L 4.8,8.5 C 5,8.6 4.4,9.2 4.4,9.2 c 0,0 0.2,-0.3 0.2,-0.2 0,0 -0.2,0.3 -0.2,0.3 0,0 0.1,-0.1 0.1,-0.1"
           id="path11"
           inkscape:connector-curvature="0"
           style="fill:none;stroke:#ee8c22;stroke-width:0.1876;stroke-linecap:round;stroke-linejoin:round" /><path
           d="M 5.6,1.1 C 5.6,1.1 5.8,0.9 5.8,0.9 6,1 5.3,1.8 5.3,1.8 5.4,1.9 6.2,0.9 6.2,0.9 6.2,0.9 5.1,2.2 5.2,2.3 5.3,2.4 6.6,0.9 6.6,0.9 6.9,1.2 5,3 5,3 5,3 7.1,0.9 7.1,0.9 7.2,1 4.5,3.3 4.8,3.6 5.3,4.1 7.6,0.8 7.6,0.8 7.7,1 4.2,3.3 4.7,3.7 L 7.6,0.8"
           id="path13"
           inkscape:connector-curvature="0"
           style="fill:none;stroke:#ee8c22;stroke-width:0.1876;stroke-linecap:round;stroke-linejoin:round" /><path
           d="m 0.7,1.1 c 0,0 0.1,-0.1 0,0 l 0,0.3 C 0.7,1.4 1.2,0.9 1.2,0.9 1.4,1 0.6,1.7 0.7,1.8 0.8,1.9 1.3,0.8 1.5,1 1.6,1 0.6,2.2 0.7,2.2 0.7,2.2 1.9,1 1.9,1 1.9,1 0.6,2 0.8,2.1 1,2.3 1.9,0.9 2,0.9 2,0.9 0.4,2.4 0.7,2.6 L 2.3,1 C 2.6,1.3 0.3,2.5 0.6,2.8 0.9,3 2.5,1 2.5,1 L 0.8,3.2 C 0.8,3.2 3,1 3,1 L 0.7,3.3 C 1.2,3.8 3.1,0.9 3.1,0.9 3.6,1.4 0.7,3.5 0.7,3.5 L 3.3,0.9 C 3.5,1.1 0.7,3.9 0.7,3.9 1,4.3 3.4,1.3 3.4,1.3 3.7,1.6 0.6,4 0.7,4.1 c 0,0 2.5,-3.1 2.8,-2.8 0,0 -2.8,2.9 -2.8,3 L 3.5,1.5 C 3.7,1.7 0.7,4.7 0.7,4.7 1,5 3.7,1.7 3.7,1.7 L 0.7,5.1 3.8,2 C 4.3,2.5 0.6,5.5 0.6,5.5 1,5.8 3.4,1.9 3.8,2.3 4.4,2.9 0.7,5.7 0.7,5.7 0.7,5.7 3.6,2.1 3.9,2.5 L 0.7,5.8 4,2.5 C 4.6,3.1 0.4,5.8 0.7,6.1 0.8,6.1 4,2.7 4,2.7 4.5,3.2 0.7,6.4 0.7,6.4 0.8,6.5 4.1,3 4.1,3 L 0.7,6.7 c 0,0 3.2,-3.8 3.5,-3.5 0.7,0.7 -3.6,4 -3.6,4 0,0 3.4,-4.1 3.8,-3.7 L 0.6,7.3 c 0,0 3.2,-4.3 3.8,-3.8 0,0 -4,3.6 -3.7,3.8 C 1,7.7 3.8,3.1 4.4,3.7 L 0.7,7.5 c 0,0 3.8,-3.8 3.8,-3.8 0.7,0.7 -3.8,4 -3.8,4 C 0.8,7.8 4.6,3.8 4.6,3.8 4.6,3.8 -0.2,7.2 0.7,8 2,9.3 7,-0.2 7.9,0.8 L 0.7,8.4 8.3,0.8 C 8.4,0.9 -0.5,7.4 0.7,8.7 2.1,10 8.5,0.9 8.5,0.9 9.2,1.7 0.1,8.4 0.8,9 0.9,9.1 8.5,1.3 8.5,1.3 l -7.7,8 C 0.9,9.4 3.2,6.4 3.4,6.7 3.6,6.9 0.7,9.4 0.7,9.4 0.9,9.6 3.3,6.8 3.3,6.8 L 0.7,9.9 3.4,7.2 C 3.7,7.5 0.7,10 0.7,10 c 0,0 2.6,-2.6 2.6,-2.6 0,0 -2.5,2.6 -2.5,2.6 0,0 2.6,-2.6 2.6,-2.6 l -2.6,2.9 c 0,0 2.5,-2.8 2.6,-2.6 L 0.8,10.8 C 1.2,11.2 3,7.9 3.4,8.2 c 0.1,0.1 -2.6,3 -2.6,3 0,0 2.5,-2.6 2.6,-2.6 C 3.5,8.7 0.7,11 0.9,11.2 L 3.5,8.6 c 0.3,0.3 -3,2.7 -2.6,3.1 L 3.4,9.2 C 3.4,9.2 0.8,12 0.9,12.1 1.3,12.5 3.1,9.2 3.4,9.6 3.8,10 0.9,12.3 0.9,12.3 1,12.4 3.5,9.7 3.5,9.7 c 0,0 -2.9,2.8 -2.6,3.1 0.5,0.5 2.1,-3 2.6,-2.6 0.3,0.3 -2.9,2.4 -2.5,2.8 0.1,0.1 2.4,-2.4 2.4,-2.4 0.1,0.1 -2.9,2.2 -2.5,2.6 0.2,0.2 2.5,-2.5 2.5,-2.5 0.2,0.2 -3.1,2.2 -2.6,2.7 0.1,0.1 2.3,-3 2.6,-2.6 0,0 -3,2.4 -2.5,2.9 C 1.3,14.1 3,11 3.3,11.3 3.7,11.7 0.6,13.5 1,13.9 1.2,14.1 2.9,11.2 3.3,11.6 3.3,11.6 0.8,13.7 1,14 L 3.3,11.7 C 3.7,12 0.9,13.8 1,13.9 c 0,0 2,-2.7 2.4,-2.4 L 1.5,13.8 3.3,12 c 0,0 -1.8,1.9 -1.8,1.9 0,0 1.7,-1.8 1.7,-1.7 0.1,0.1 -1.4,1.7 -1.4,1.7 0.1,0.1 1.3,-1.7 1.5,-1.5 L 1.9,14 c 0.2,0.2 1.4,-1.5 1.5,-1.5 0,0 -1.5,1.3 -1.4,1.4 0.3,0.3 1.4,-1.4 1.4,-1.4 0,0 -0.9,1.4 -0.9,1.4 C 2.6,14 3.4,13 3.4,13 c 0.1,0.1 -0.7,0.9 -0.7,0.9 0,0 0.7,-0.9 0.8,-0.8 0,0 -0.9,0.7 -0.8,0.8 0.1,0.1 0.8,-0.8 0.8,-0.8 0.1,0.1 -0.5,0.7 -0.5,0.7 0,0 0.5,-0.5 0.5,-0.5 0,0 -0.6,0.5 -0.5,0.6 l 0.4,-0.4 -0.1,0.4 0.1,-0.1"
           id="path15"
           inkscape:connector-curvature="0"
           style="fill:none;stroke:#ee8c22;stroke-width:0.1876;stroke-linecap:round;stroke-linejoin:round" /><path
           d="m 14.8,10.7 3.1,-3.1 c 0.1,0.1 -3,3.1 -3.1,3.1 0.1,0 2.9,-3.4 3.1,-3.1 l -2.7,3.1 c 0,0 2.7,-2.8 2.8,-2.8 0,0 -3,2.4 -2.7,2.7 0.5,0.5 2.3,-2.9 2.6,-2.6 0.2,0.2 -2.6,2.4 -2.4,2.6 L 18,8.2 c 0.2,0.2 -2.5,2.2 -2.1,2.6 l 2.3,-2.3 c 0,0 -2.2,2.4 -2.2,2.4 0,0 2.2,-2.3 2.2,-2.2 L 16,11.1 c 0,0 2.2,-2.2 2.2,-2.2 0.3,0.3 -2,2.3 -2,2.3 0.3,0.3 2,-2 2,-2 0.2,0.2 -2.1,2 -2,2.2 0,0 1.8,-2.3 2,-2 l -2,2.4 c 0.1,0.1 1.9,-2.1 2,-2 l -2,2.1 c 0,0 1.8,-2.3 2,-2 l -1.9,2.1 2.1,-2.1 -2.1,2.2 2.2,-2.2 c 0.4,0.4 -2.1,2.5 -2.1,2.5 l 2.1,-2.1 c 0.4,0.4 -2,2.2 -2,2.2 0.3,0.3 1.8,-2.3 2,-2 0.1,0.1 -2,2.2 -2,2.2 0,0 1.8,-2.3 2.1,-2.1 0,0 -2,2.4 -2,2.4 l 2,-2 c 0.4,0.4 -1.9,2.4 -1.9,2.4 0.3,0.3 2,-2 2,-2 0.2,0.2 -1.9,2.2 -1.9,2.3 l 2.1,-2.1 c 0,0 -2.3,1.9 -2.1,2.1 l 2.1,-2.1 c 0,0 -1.8,2.1 -1.8,2.1 0.3,0.3 1.6,-2.2 1.9,-1.9 L 17.1,13.7 19,12 c 0,0 -1.7,1.8 -1.6,1.9 0,0 1.6,-1.6 1.6,-1.6 L 17.5,14 c 0,0 1.5,-1.5 1.5,-1.5 0.1,0.1 -1.3,1.2 -1,1.4 0,0 1,-1.3 1.2,-1.2 0.2,0.2 -1.3,1.1 -1.2,1.2 0.2,0.2 1.2,-1.2 1.2,-1.2 0,0 -1,1 -0.9,1.2 0,0 0.9,-1.1 1,-1 0.1,0.1 -0.5,1 -0.5,1 l 0.5,-0.5 c 0,0 0,0.4 0,0.4 l 0.1,-0.1"
           id="path17"
           inkscape:connector-curvature="0"
           style="fill:none;stroke:#ee8c22;stroke-width:0.1876;stroke-linecap:round;stroke-linejoin:round" /><path
           d="M 15.3,4.7 C 15.4,4.7 16.9,3 16.9,3 17.2,3.3 15.5,4.9 15.5,4.9 15.6,5.1 17,3.4 17,3.4 c 0,0 -1.5,1.6 -1.3,1.7 0,0.1 1.3,-1.4 1.3,-1.4 0.2,0.2 -1.3,1.8 -1.3,1.8 0,0 1.3,-1.3 1.3,-1.3 0.1,0.1 -1.5,1.5 -1.3,1.7 0.3,0.3 1.5,-1.5 1.5,-1.5 0.1,0.1 -1.8,1.5 -1.6,1.7 l 1.5,-1.5 c 0,0 -1.6,1.5 -1.5,1.7 0,0 1.2,-1.8 1.5,-1.5 0,0 -1.5,1.4 -1.4,1.5 L 17.1,4.9 C 17.2,5 15.6,6.6 15.6,6.6 15.8,6.8 17,4.9 17.2,5 c 0.2,0.2 -1.9,1.7 -1.5,2 0,0 1.3,-1.8 1.6,-1.6 l -1.5,1.9 1.6,-1.6 c 0,0 -1.8,1.4 -1.6,1.7 C 16,7.6 17.4,5.8 17.4,5.8 17.7,5.9 16,7.7 16,7.7 16,7.7 17.5,6 17.6,6.1 17.9,6.4 16.1,8 16.1,8 16.4,8.3 17.7,6.4 17.7,6.4 L 16,8.4 C 16.3,8.7 17.7,6.7 17.7,6.7 18,7 16,8.4 16,8.4 L 17.6,6.8 C 17.8,7 15.8,8.3 16,8.4 16.1,8.5 17.7,6.7 17.7,6.7 17.9,6.9 16,8.5 16,8.5 l 1.6,-1.6"
           id="path19"
           inkscape:connector-curvature="0"
           style="fill:none;stroke:#ee8c22;stroke-width:0.1876;stroke-linecap:round;stroke-linejoin:round" /><path
           d="m 14.1,0.9 c 0,0 0.1,-0.1 0,0 L 14,1.3 c 0,0 0.6,-0.6 0.6,-0.6 0.2,0.2 -0.9,0.9 -0.7,1.1 0.1,0.1 0.8,-1.2 1,-1 0.1,0.1 -1.2,1.5 -1.2,1.5 0,0 1.5,-1.6 1.5,-1.5 0,0 -1.7,1.2 -1.4,1.5 0.2,0.2 1.4,-1.6 1.5,-1.5 0,0 -2.2,1.9 -1.8,2.2 l 2.2,-2.2 c 0.3,0.3 -2.6,2 -2.3,2.4 0.3,0.3 2.4,-2.4 2.4,-2.4 l -2.5,3 c 0,0 3,-3 3,-3 l -3.1,3.1 c 0.6,0.6 3.2,-3.2 3.2,-3.2 0.7,0.7 -3.2,3.5 -3.2,3.5 l 3.3,-3.3 c 0.2,0.2 -3.3,3.8 -3.3,3.8 0.4,0.4 3.3,-3.3 3.3,-3.3 0.3,0.3 -3.6,3.3 -3.4,3.6 0,0 3.1,-3.9 3.5,-3.5 0,0 -3.6,3.7 -3.5,3.7 L 16.6,1.7 C 16.9,2 13,5.8 13,5.8 13.3,6.1 16.7,2 16.7,2 l -4,4.3 4.1,-4.1 c 0.6,0.6 -4.1,4.5 -4.1,4.5 0.3,0.4 3.4,-4.7 4.1,-4.1 0.7,0.7 -4.2,4.5 -4.2,4.5 0,0 3.8,-4.7 4.2,-4.2 L 12.6,7.2 16.9,2.9 C 17.7,3.7 12.2,7.3 12.5,7.6 12.6,7.7 15.1,5 15.1,5 15.5,5.4 12.3,8.1 12.3,8.1 12.5,8 15,5.3 15,5.3 l -2.6,3 c 0,0 2.4,-2.9 2.6,-2.6 0.5,0.5 -2.8,3.3 -2.8,3.3 0,0 2.5,-3 2.7,-2.7 L 12.1,9 c 0,0 2.4,-3.2 2.8,-2.8 0,0 -2.9,2.6 -2.8,2.8 0.3,0.3 2.3,-3.1 2.7,-2.7 l -2.7,2.9 c 0,0 2.7,-2.7 2.7,-2.7 0.5,0.5 -2.8,3 -2.8,3 0.1,0.1 2.7,-2.8 2.8,-2.8 0,0 -3.5,2.6 -2.9,3.2 0.5,0.5 2.4,-3.2 2.8,-2.8 l -2.9,3.3 2.8,-2.8 c 0,0 -3.4,2.7 -2.9,3.2 0.5,0.5 2.8,-2.8 2.8,-2.8 0.3,0.3 -3.1,3 -2.9,3.2 0,0 2.8,-2.8 2.8,-2.8 l -2.9,3.2 c 0.1,0.1 2.7,-3.2 3,-3 0.2,0.2 -3,3.1 -3,3.1 0.2,0.2 3,-3 3,-3 l -3.1,3.6 3.7,-3.7 c 0.4,0.4 -3.8,3.9 -3.8,3.9 0.1,0.1 3.9,-3.9 3.9,-3.9 0,0 -3.8,3.8 -3.8,3.8 0,0 3.9,-3.9 3.9,-3.9 l -4,4.3 c 0,0 4.1,-4.4 4.3,-4.3 l -4.3,4.9 c 1,1 5.5,-7.3 6.4,-6.4 0.1,0.1 -6.6,7 -6.6,7 0,0 6.5,-6.7 6.6,-6.6 0.1,0.1 -7,6 -6.5,6.6 l 6.6,-6.6 c 0.8,0.8 -7,5.7 -6.1,6.6 l 2.8,-2.8 c 0,0 -2.5,2.7 -2.4,2.8 0.4,0.4 2,-2.6 2.3,-2.3 0.3,0.3 -2.1,2.3 -2.1,2.3 0,0 2.1,-2.1 2.1,-2.1 0,0 -1.9,2 -1.7,2.2 0.3,0.3 1.3,-1.8 1.5,-1.5 0.2,0.2 -1.4,1.2 -1.2,1.5 0,0 1,-1 1,-1 0,0 -1.1,0.9 -0.9,1.1 0.1,0.1 0.9,-0.9 0.9,-0.9 0.1,0.1 -1,0.8 -0.8,0.9 0,0 0.8,-1 0.9,-0.9 0,0 -0.5,0.7 -0.3,0.8 0,0 0.1,-0.1 0.1,-0.1 0,0 -0.1,0.1 -0.1,0.1 0,0 0.1,-0.1 0.1,-0.1"
           id="path21"
           inkscape:connector-curvature="0"
           style="fill:none;stroke:#ee8c22;stroke-width:0.1876;stroke-linecap:round;stroke-linejoin:round" /><path
           d="m 24.7,8.9 2,-2 c 0.1,0.1 -1.9,2 -2,2 0,0 1.8,-2.2 2,-2 l -1.9,2.3 c 0,0 1.9,-2 1.9,-1.9 0,0 -2.1,1.7 -1.9,1.9 0.3,0.3 1.6,-2 1.8,-1.8 0.1,0.1 -1.9,1.8 -1.8,2 l 1.8,-1.8 c 0.2,0.2 -2,1.9 -1.8,2.2 L 27,7.9 c 0,0 -1.9,2.1 -1.8,2.1 0,0 1.9,-2 2,-2 l -1.9,2.1 c 0,0 1.9,-2 1.9,-1.9 0.3,0.3 -1.7,2 -1.7,2 0.2,0.2 1.8,-1.8 1.8,-1.8 0.1,0.1 -1.9,1.8 -1.7,1.9 0,0 1.6,-2.1 1.8,-1.8 l -1.7,2.1 c 0.1,0.1 1.7,-1.9 1.8,-1.8 l -1.8,1.9 c 0,0 1.6,-2.1 1.8,-1.8 l -1.9,2 1.8,-1.9 -1.8,2 2,-2 c 0.3,0.3 -1.9,2.3 -1.9,2.3 l 1.9,-1.9 c 0.4,0.4 -1.8,2 -1.8,2 0.3,0.3 1.6,-2.1 1.9,-1.9 0.1,0.1 -1.8,2 -1.8,2 0,0 1.6,-2.2 1.9,-1.9 0,0 -1.8,2.1 -1.8,2.1 l 1.8,-1.8 c 0.4,0.4 -1.7,2.2 -1.7,2.2 0.3,0.3 1.9,-1.9 1.9,-1.9 0.2,0.2 -1.7,2 -1.7,2.1 l 1.9,-1.9 c 0,0 -2.1,1.8 -1.9,2 l 1.9,-1.9 c 0,0 -1.8,2.1 -1.8,2.1 0.3,0.3 1.6,-2.2 1.9,-1.9 l -2,2 2,-2 c 0,0 -1.9,2 -1.8,2.1 0,0 1.9,-1.9 1.9,-1.9 l -1.9,2 c 0,0 1.9,-1.9 1.9,-1.9 0.2,0.2 -2,1.7 -1.6,2.1 0,0 1.6,-2.1 1.8,-1.8 0.4,0.4 -2.1,1.7 -1.9,1.9 0.3,0.3 1.9,-1.9 1.9,-1.9 0,0 -2,1.7 -1.7,2 0,0 1.6,-2.1 1.9,-1.9 0.4,0.4 -1.7,2.2 -1.7,2.2 l 1.8,-1.8 c 0,0 -1.5,1.9 -1.4,2 l 1.6,-1.6 c 0,0 -1.5,1.7 -1.4,1.8 0.2,0.2 1.3,-1.5 1.4,-1.4 0,0 -1.3,1.3 -1.2,1.4 0.1,0.1 1.1,-1.4 1.3,-1.3 l -1,1.3 1.1,-1.1 -0.9,1.1 0.9,-0.9 c 0,0 -0.8,0.8 -0.7,1 l 0.8,-0.8 c 0,0 -0.2,0.7 -0.2,0.7 0,0 0.2,-0.3 0.3,-0.3 0,0 0.2,0.2 0.2,0.2 0,0 0,0 0,0"
           id="path23"
           inkscape:connector-curvature="0"
           style="fill:none;stroke:#ee8c22;stroke-width:0.1876;stroke-linecap:round;stroke-linejoin:round" /><path
           d="m 27.1,1.1 c 0,0 0.3,-0.3 0.3,-0.3 0.2,0.2 -0.9,1.3 -0.9,1.3 0.1,0.1 1.3,-1.3 1.3,-1.3 0,0 -1.8,1.9 -1.7,2.1 0.1,0.1 2.1,-2.1 2.1,-2.1 0.5,0.5 -2.6,3.1 -2.6,3.1 0.1,0.1 3,-3 3,-3 C 28.8,1.1 24.4,4.6 24.8,5 25.6,5.8 29,0.8 29,0.8 29.2,1 23.8,4.5 24.6,5.3 L 29,0.8"
           id="path25"
           inkscape:connector-curvature="0"
           style="fill:none;stroke:#ee8c22;stroke-width:0.1876;stroke-linecap:round;stroke-linejoin:round" /><path
           d="m 22,0.9 c 0.1,0 0.1,-0.1 0,0 l 0,0.3 c 0,0 0.4,-0.4 0.4,-0.4 0.1,0.1 -0.5,0.7 -0.4,0.8 0.1,0.1 0.6,-0.8 0.7,-0.7 0.1,0 -0.8,1 -0.7,1.1 0,0 1.1,-1.1 1.1,-1.1 0,0 -1.2,0.9 -1,1 0.2,0.2 1,-1.2 1.1,-1.1 0,0 -1.5,1.4 -1.2,1.6 L 23.6,0.8 C 23.8,1 21.7,2.2 22,2.5 22.2,2.7 23.7,0.8 23.7,0.8 l -1.6,2.1 c 0,0 2.1,-2.1 2.1,-2.1 L 22,3.1 C 22.4,3.5 24.3,0.8 24.3,0.8 24.8,1.2 22,3.3 22,3.3 L 24.6,0.7 C 24.7,1 22,3.7 22,3.7 22.3,4 24.5,1.2 24.5,1.2 24.8,1.5 21.9,3.7 22,3.8 22,3.8 24.2,1 24.5,1.3 24.5,1.4 22,4 22,4 L 24.4,1.6 C 24.7,1.8 22,4.5 22,4.5 22.3,4.7 24.5,2 24.5,2 L 22,5 24.6,2.4 C 24.9,2.8 22,5.3 22,5.3 22.2,5.5 24.1,2.4 24.5,2.8 24.9,3.2 22,5.6 22,5.6 c 0,0 2.2,-2.8 2.5,-2.5 L 22,5.6 24.6,3 C 25.1,3.5 21.8,5.7 22,5.8 22.1,5.9 24.5,3.3 24.5,3.3 24.9,3.7 22,6.2 22,6.2 22.1,6.3 24.5,3.7 24.5,3.7 L 22,6.5 c 0,0 2.3,-2.8 2.5,-2.5 0.5,0.5 -2.6,3 -2.6,3 0,0 2.3,-2.9 2.6,-2.6 l -2.6,2.7 c 0,0 2.3,-3 2.6,-2.6 0,0 -2.8,2.5 -2.6,2.7 0.3,0.3 2.2,-2.9 2.6,-2.6 l -2.6,2.7 c 0,0 2.6,-2.6 2.6,-2.6 C 25,5.3 22,7.5 22,7.5 22,7.6 24.5,5 24.5,5 c 0,0 -3.2,2.4 -2.6,2.9 0.5,0.5 2.3,-3 2.6,-2.6 l -2.6,3 7.4,-7.4 C 29.5,1 20.8,7.3 22,8.5 c 1.3,1.3 7.7,-7.7 7.7,-7.7 0.7,0.7 -8.3,7.4 -7.7,8 0.1,0.1 7.6,-7.6 7.6,-7.6 l -7.7,8 c 0.3,0.3 7,-8.2 7.6,-7.6 0.5,0.5 -7.6,7.7 -7.6,7.7 0.5,0.5 7.5,-7.5 7.5,-7.5 l -7.5,8 7.2,-7.2 c 0.7,0.7 -7.2,7.4 -7.2,7.4 0.1,0.1 7,-7 7,-7 C 29,3 22,9.9 22,9.9 22,9.9 28.9,3 28.9,3 l -7,7.2 c 0,0 6.4,-7 6.7,-6.7 L 22,10.7 c 1,1 5.1,-6.8 6,-6 0.1,0.1 -6,6.4 -6,6.4 0,0 5.4,-5.5 5.5,-5.5 0.1,0.1 -5.9,5 -5.4,5.5 l 5.4,-5.4 c 0.7,0.7 -6.2,5.1 -5.4,5.9 L 24.6,9 c 0,0 -2.8,3 -2.7,3.1 0.4,0.4 2.3,-3.1 2.7,-2.7 0.4,0.4 -2.7,2.9 -2.7,2.9 0.1,0.1 2.8,-2.8 2.8,-2.8 0,0 -3.1,2.9 -2.8,3.2 0.5,0.5 2.3,-3.2 2.7,-2.7 0.4,0.4 -3.1,2.5 -2.6,2.9 0.1,0.1 2.6,-2.6 2.6,-2.6 0.1,0.1 -3.1,2.3 -2.6,2.8 0.2,0.2 2.6,-2.6 2.6,-2.6 0.2,0.2 -3.2,2.3 -2.7,2.8 0.1,0.1 2.4,-3.1 2.8,-2.8 0,0 -3.2,2.5 -2.6,3.1 0.5,0.5 2.3,-2.9 2.6,-2.6 0.4,0.4 -2.9,2.4 -2.5,2.8 0.2,0.2 2,-3 2.5,-2.5 0,0 -2.8,2.3 -2.5,2.6 l 2.6,-2.6 c 0.4,0.4 -2.7,2.4 -2.5,2.6 0,0 2.2,-3 2.6,-2.6 l -2.2,2.6 2.1,-2.1 c 0,0 -2.1,2.1 -2.1,2.1 0,0 1.9,-2.1 2,-2 0.1,0.1 -1.7,2 -1.7,2 0.1,0.1 1.6,-2 1.8,-1.8 L 23,13.9 c 0.3,0.3 1.7,-1.8 1.7,-1.7 0,0 -1.8,1.6 -1.7,1.7 0.3,0.3 1.6,-1.6 1.6,-1.6 0,0 -1.2,1.7 -1.2,1.7 0.1,0.1 1.2,-1.2 1.2,-1.2 0.2,0.2 -1,1.2 -1,1.2 0,0 0.9,-1.2 1.1,-1.1 0,0 -1.2,0.9 -1.1,1.1 0.1,0.1 1.1,-1.1 1.1,-1.1 0.1,0.1 -0.7,1 -0.7,1 0,0 0.8,-0.8 0.8,-0.8 0,0 -0.8,0.7 -0.8,0.8 l 0.7,-0.7 -0.2,0.6 0.2,-0.2 c 0,0 -0.1,0.1 -0.1,0.1 0,0 0,0 0,0"
           id="path27"
           inkscape:connector-curvature="0"
           style="fill:none;stroke:#ee8c22;stroke-width:0.1876;stroke-linecap:round;stroke-linejoin:round" /><path
           d="m 35.5,8.8 2.2,-2.2 c 0,0.1 -2.1,2.2 -2.2,2.2 0.1,-0.1 2,-2.4 2.2,-2.2 L 36,8.8 c 0,0 1.7,-1.8 1.7,-1.7 0,0 -1.8,1.5 -1.6,1.7 0.3,0.2 1.4,-1.8 1.5,-1.6 0.1,0.1 -1.5,1.4 -1.3,1.6 l 1.3,-1.3 c 0.1,0.1 -1.1,1.2 -0.9,1.4 l 1,-1 c 0,0 -0.7,0.9 -0.7,1 0,0 0.7,-0.7 0.7,-0.7 l -0.5,0.7 c 0,0 0.4,-0.5 0.5,-0.5 0,0 -0.1,0.3 -0.1,0.3 0,0 0.1,-0.1 0.1,-0.1"
           id="path29"
           inkscape:connector-curvature="0"
           style="fill:none;stroke:#ee8c22;stroke-width:0.1876;stroke-linecap:round;stroke-linejoin:round" /><path
           d="m 35.3,3.8 c 0.1,0.1 2.9,-3.1 3,-3 0.5,0.5 -2.5,3 -2.5,3 0.3,0.3 2.9,-2.9 2.9,-2.9 0,0 -2.7,2.6 -2.5,2.8 0.2,0.2 2.8,-2.8 2.8,-2.8 0.4,0.4 -2.4,2.8 -2.4,2.8 0.1,0.1 2.8,-2.8 2.8,-2.8 0.1,0.1 -2.7,2.5 -2.4,2.8 0.7,0.5 3,-2.9 3,-2.9 0.1,0.1 -3.2,2.5 -2.8,2.9 l 2.9,-2.9 c 0.1,0.1 -2.9,2.6 -2.7,2.9 0,0 2.3,-3.3 2.8,-2.8 0,0 -2.8,2.5 -2.6,2.7 L 40.3,1 c 0.2,0.2 -2.6,2.8 -2.6,2.8 0.4,0.4 2.4,-2.9 2.6,-2.6 0.3,0.3 -2.6,2.2 -2.1,2.6 0,0 1.7,-2.5 2.1,-2.1 L 38.6,3.8 40.3,2 c 0,0 -1.8,1.4 -1.5,1.7 0.2,0.2 1.6,-1.6 1.6,-1.6 0.1,0.1 -1.1,1.5 -1.1,1.5 0,0 1,-1.1 1.1,-1.1 0.1,0.1 -0.7,1 -0.7,1 0.1,0.1 0.7,-0.7 0.7,-0.7 L 40,3.6 c 0,0 0.3,-0.3 0.3,-0.3 0,0 -0.3,0.3 -0.3,0.3 l 0.2,-0.2 c 0,0 -0.2,0.2 -0.2,0.2 0,0 0.3,-0.3 0.3,-0.3 0,0 -0.1,0.3 -0.1,0.3 l 0,0"
           id="path31"
           inkscape:connector-curvature="0"
           style="fill:none;stroke:#ee8c22;stroke-width:0.1876;stroke-linecap:round;stroke-linejoin:round" /><path
           d="m 32.6,1.1 c 0,0 0,-0.1 0,0 l 0,0.3 c 0,0 0.4,-0.5 0.4,-0.4 0.1,0.1 -0.6,0.7 -0.5,0.8 0.1,0.1 0.6,-0.9 0.7,-0.7 0.1,0.1 -0.9,1.1 -0.8,1.2 0,0 1.2,-1.2 1.2,-1.2 0,0 -1.2,0.9 -1.1,1.1 0.2,0.2 1.1,-1.2 1.2,-1.2 0,0 -1.6,1.4 -1.3,1.7 L 34.1,1 c 0.3,0.3 -2,1.5 -1.7,1.8 C 32.6,3 34.2,1 34.2,1 l -1.7,2.2 c 0,0 2.3,-2.3 2.3,-2.3 l -2.4,2.4 c 0.5,0.5 2.5,-2.5 2.5,-2.5 0.5,0.5 -2.5,2.7 -2.5,2.7 L 35.1,0.8 C 35.3,1 32.5,4 32.5,4 c 0.4,0.4 3.1,-3.1 3.1,-3.1 0.3,0.3 -3.3,3 -3.1,3.2 0,0 2.9,-3.7 3.3,-3.3 0,0 -3.3,3.4 -3.2,3.4 L 36,0.8 C 36.2,1 32.6,4.7 32.6,4.7 33,5.1 36.5,0.8 36.5,0.8 l -4,4.4 4.4,-4.4 c 0.6,0.6 -4.4,4.7 -4.4,4.7 0.4,0.4 4,-5.4 4.7,-4.7 0.8,0.8 -4.6,4.9 -4.6,4.9 0,0 4.4,-5.5 4.9,-4.9 l -4.9,5 5.1,-5.1 c 0.9,0.9 -5.4,5 -5.1,5.3 0.1,0.1 5.2,-5.2 5.2,-5.2 0.7,0.7 -5.3,5.6 -5.3,5.6 C 32.6,6.6 38,0.9 38,0.9 l -5.5,5.8 c 0,0 2.5,-3 2.8,-2.8 0.5,0.5 -2.8,3.3 -2.8,3.3 0,0 2.5,-3.1 2.8,-2.8 l -2.8,3 c 0,0 2.4,-3.3 2.8,-2.8 0,0 -3,2.7 -2.8,2.9 0.3,0.3 2.3,-3.2 2.8,-2.8 l -2.8,2.9 c 0,0 2.8,-2.8 2.8,-2.8 0.5,0.5 -2.8,3 -2.8,3 C 32.6,7.9 35.2,5 35.3,5 35.3,5 31.9,7.5 32.5,8.1 33,8.6 34.9,5 35.3,5.3 l -2.8,3.2 2.8,-2.8 c 0,0 -3.2,2.6 -2.7,3 0.5,0.5 2.8,-2.8 2.8,-2.8 0.3,0.3 -3,2.9 -2.8,3.1 0,0 2.9,-2.9 2.9,-2.9 l -3,3.3 c 0.1,0.1 3.1,-3.6 3.3,-3.3 0.2,0.2 -3.4,3.4 -3.4,3.4 0.2,0.2 3.4,-3.4 3.4,-3.4 L 32.5,9.9 36.4,6 c 0.4,0.4 -3.9,4.1 -3.9,4.1 0.1,0.1 4,-4 4,-4 0,0 -3.9,4 -3.9,4 0,0 4,-4 4,-4 l -4.1,4.3 c 0,0 4.2,-4.5 4.4,-4.4 l -4.3,4.8 c 0.8,0.8 4.1,-5.5 4.8,-4.8 0.1,0.1 -4.8,5.2 -4.8,5.2 0,0 5.1,-5.2 5.1,-5.1 0.1,0.1 -5.5,4.7 -5.1,5.2 l 5.2,-5.2 c 0.7,0.7 -5.9,4.9 -5.2,5.6 l 2.9,-2.9 c 0,0 -3,3.1 -2.9,3.2 0.5,0.5 2.4,-3.3 2.8,-2.8 0.4,0.4 -2.9,3 -2.9,3 0.1,0.1 2.9,-2.9 2.9,-2.9 0,0 -3.3,3 -2.9,3.4 0.5,0.5 2.4,-3.3 2.8,-2.8 0.4,0.4 -3.2,2.6 -2.7,3 0.1,0.1 2.7,-2.7 2.7,-2.7 0.1,0.1 -3.2,2.4 -2.7,2.9 0.2,0.2 2.8,-2.8 2.8,-2.8 0.2,0.2 -3.4,2.4 -2.8,2.9 0.1,0.1 2.5,-3.3 2.9,-2.9 0,0 -3.4,2.7 -2.8,3.2 0.5,0.5 2.4,-3.1 2.7,-2.7 0.4,0.4 -3,2.4 -2.5,2.8 0.2,0.2 2.1,-3 2.6,-2.6 0,0 -2.9,2.3 -2.5,2.7 l 2.6,-2.6 c 0.5,0.5 -2.7,2.5 -2.6,2.6 0,0 2.2,-3.1 2.7,-2.7 l -2.2,2.6 2.6,-2.6 c 0,0 -2.5,2.5 -2.5,2.5 0,0 2.4,-2.6 2.5,-2.5 0.1,0.1 -2.1,2.4 -2.1,2.4 0.1,0.1 2.2,-2.9 2.5,-2.5 l -2.4,2.6 c 0.4,0.4 2.5,-2.6 2.6,-2.6 0,0 -2.7,2.4 -2.5,2.5 0.5,0.5 2.5,-2.5 2.5,-2.5 0,0 -2.1,2.5 -2.1,2.5 0.2,0.2 2.5,-2.5 2.5,-2.5 0.4,0.4 -2.3,2.5 -2.3,2.5 0.1,0.1 2.3,-2.9 2.6,-2.6 0,0 -3,2.3 -2.6,2.6 0.3,0.3 2.6,-2.6 2.6,-2.6 0.4,0.4 -2.3,2.6 -2.3,2.6 0.1,0.1 2.6,-2.6 2.6,-2.6 0,0 -2.8,2.4 -2.5,2.6 l 2.6,-2.6 -2.2,2.6 2.6,-2.6 c 0.4,0.4 -2.6,2.2 -2.3,2.5 0.3,0.3 2.2,-2.8 2.5,-2.5 0.4,0.4 -2.3,2.2 -2.1,2.4 l 2.5,-2.5 -2.3,2.5 c 0.1,0.1 2.5,-2.5 2.5,-2.5 0,0 -2.6,2.1 -2.2,2.5 0,0 2.2,-2.8 2.5,-2.5 0,0 -2.6,2.4 -2.5,2.6 0.3,0.3 2,-3 2.5,-2.5 0.1,0.1 -2.2,2.5 -2.2,2.5 0,0 2.1,-2.9 2.5,-2.5 0.4,0.4 -2,2.4 -1.9,2.4 l 2.5,-2.5 c 0.4,0.4 -2.3,2.2 -2.1,2.5 0.5,0.5 2,-2.7 2.4,-2.4 0,0 -2.3,2.4 -2.3,2.4 0,0 2.2,-2.7 2.4,-2.4 0.2,0.2 -2.2,2.4 -2.2,2.4 0.1,0.1 2.4,-2.4 2.4,-2.4 l -2,2.4 c 0,0 1.9,-2.3 2.1,-2.1 0,0 -1.9,1.7 -1.6,2 0.2,0.2 1.7,-1.7 1.7,-1.7 0.2,0.2 -1.3,1.7 -1.3,1.7 0.2,0.2 1.1,-1.4 1.3,-1.3 0.1,0.1 -1.1,1.3 -1.1,1.3 0,0 1.1,-1.1 1.1,-1.1 0,0 -1,1 -1,1 0,0 1,-1.2 1.1,-1.1 0,0 -1.2,0.9 -1,1.1 0,0 0.9,-0.9 0.9,-0.9 0,0 -0.8,0.7 -0.7,0.9 0.1,0.1 0.7,-0.7 0.7,-0.7 l -0.7,0.8 0.7,-0.7 c 0,0 -0.6,0.7 -0.6,0.7 0,0 0.4,-0.4 0.4,-0.4 0,0 -0.2,0.4 -0.2,0.4 0,0 0.2,-0.2 0.2,-0.2 0,0 0,0.1 0,0.1 l 0.1,-0.1"
           id="path33"
           inkscape:connector-curvature="0"
           style="fill:none;stroke:#ee8c22;stroke-width:0.1876;stroke-linecap:round;stroke-linejoin:round" /></g></g></g><g
     id="g35"
     transform="translate(4.9998,5.9999981)"><g
       id="g37"><path
         d="m 7.9,13.3 c -0.3,0 -0.7,-0.1 -1.1,-0.1 l -1.4,0 C 5.4,13 5.4,11.9 5.3,10 5.3,8.1 5.2,6.7 5.1,5.9 5,6.2 4.9,6.5 4.7,6.9 4.3,8.2 4,8.8 3.9,8.8 3.8,8.8 3.7,8.7 3.6,8.4 3.5,8.1 3.4,7.9 3.3,7.7 3.3,7.5 3.2,7.3 3.1,7.2 3.1,7 3,6.8 2.9,6.7 2.9,6.5 2.8,6.3 2.8,6.2 2.7,6.9 2.7,7.9 2.7,9.1 c 0,1.2 0,2.6 0.2,4.2 -0.4,0.1 -0.8,0.1 -1.3,0.1 l -1.4,0 c 0,0 -0.1,0 -0.1,-0.1 0,-0.1 0,-1.3 0,-3.6 0,-2.3 0,-5.4 0,-9.1 C 0.1,0.5 0.4,0.5 1,0.5 l 1.4,0 c 0.2,0 0.3,0 0.3,0 l 0,0 C 2.9,0.6 3.1,1 3.4,1.8 3.6,2.6 3.8,3 3.9,3.2 4,3.2 4,3.3 4,3.3 4,3.3 4.1,3.2 4.1,3.1 4.2,2.9 4.2,2.7 4.3,2.5 4.4,2.2 4.5,2 4.5,1.7 4.8,0.9 5,0.5 5.2,0.3 c 0.1,0 0.2,0 0.3,0 L 8,0.2 C 8,0.5 8,1 8,1.5 l 0,4 c 0,0.8 0,1.4 0,1.9 l -0.1,5.9 z"
         id="path39"
         style="fill:none;stroke:#f0f6f7;stroke-width:0.1876;stroke-opacity:1"
         inkscape:connector-curvature="0" /><path
         d="m 13.5,0.2 c 0.2,0 0.3,0 0.4,0 0.1,0 0.2,0 0.5,0 0.3,0 0.8,0 1.5,-0.1 l 1.5,6.6 1.4,6.6 0,0 c -0.3,0.1 -0.7,0.1 -1.1,0.1 -0.4,0 -0.9,-0.1 -1.4,-0.2 l 0,0 C 16.2,13 16.1,12.5 15.9,11.7 15.7,10.9 15.6,10.4 15.4,10.2 15.3,10.2 15.2,10.1 15,10.1 l -0.8,0 c -0.1,0.2 -0.2,0.7 -0.4,1.5 -0.2,0.8 -0.3,1.3 -0.5,1.6 -0.1,0 -0.2,0 -0.3,0 l -2.3,0 c 0,0 0,0 0,0 0,0 0.1,-0.7 0.4,-2.1 C 11.3,9.7 11.7,8 12.1,5.9 12.5,3.9 13,2 13.5,0.2 Z M 14.1,8 C 14.6,8 15,8 15.5,8 15.2,5.3 14.9,4 14.7,4 14.6,4 14.6,4.1 14.5,4.3 14.5,4.5 14.4,5.7 14.1,8 Z"
         id="path41"
         style="fill:none;stroke:#f0f6f7;stroke-width:0.1876;stroke-opacity:1"
         inkscape:connector-curvature="0" /><path
         d="m 29.3,13.3 c -0.3,0.1 -0.7,0.1 -1.1,0.1 l -1.5,-0.1 c -0.4,-0.5 -0.9,-1.4 -1.5,-2.7 -0.6,-1.3 -1,-2 -1.1,-2.2 0,0.3 0,0.6 0,0.9 l 0.1,3.9 c -0.3,0.1 -0.6,0.1 -0.9,0.1 -0.8,0 -1.4,0 -1.8,-0.1 -0.1,-0.4 -0.1,-1.4 -0.1,-2.9 L 21.5,0.2 c 0.1,0 0.3,0 0.4,0 l 2.1,0 c 0,0.5 0,1.2 0,2.3 0,1 0,1.8 0,2.3 0,0 0.1,-0.2 0.3,-0.4 0.2,-0.3 0.6,-0.9 1.1,-1.9 0.5,-1 1,-1.7 1.3,-2.2 0.1,0 0.3,0 0.5,0 l 1.2,0 c 0.5,0 0.8,0 0.9,0.1 -0.2,0.8 -0.8,1.9 -1.6,3.3 -0.8,1.4 -1.4,2.4 -1.6,3 l 3.2,6.6 z"
         id="path43"
         style="fill:none;stroke:#f0f6f7;stroke-width:0.1876;stroke-opacity:1"
         inkscape:connector-curvature="0" /><path
         d="m 34.9,10.7 4.1,0.1 c 0.3,0 0.6,0 0.8,0 l 0,0 c 0,0.3 0,0.7 0,1.1 0,0.5 -0.1,0.9 -0.2,1.3 l -5.3,0.1 c -0.9,0 -1.7,0 -2.4,-0.1 L 31.8,4.4 c 0,-1.4 0,-2.8 0.1,-4 2.1,-0.1 3.9,-0.2 5.5,-0.2 1.5,0 2.3,0 2.3,0.1 0,0.3 0.1,0.5 0.1,0.8 l -0.1,1.9 0,0 c -0.6,0.1 -1.3,0.2 -2.2,0.2 l -1,0 c -0.7,0 -1.3,0 -1.8,0 l -0.1,0 0,0 -0.1,1.6 c 0,0.3 0,0.5 0.1,0.6 0.7,0 1.4,0.1 2.3,0.1 l 0,0 c 0,0 0.1,0.3 0.1,0.8 l 0,1.8 c -0.3,0.1 -0.7,0.1 -1.3,0.1 -0.6,0 -0.9,0 -1,0.1 -0.1,0.3 -0.1,0.6 -0.1,1 0.2,0.4 0.2,0.9 0.3,1.4 l 0,0 z"
         id="path45"
         style="fill:none;stroke:#f0f6f7;stroke-width:0.1876;stroke-opacity:1"
         inkscape:connector-curvature="0" /></g></g><g
     id="g47"
     transform="translate(0,27.999992)"><g
       id="g49"><path
         d="m 5.7998,-1.3999939 1.2,0 c 0,0.3 0.2,0.5 0.5,0.6 0.1,0 0.2,0.1 0.4,0.1 0.1,0 0.3,-0.1 0.4,-0.2 0.1,-0.1 0.2,-0.3 0.2,-0.4 0,-0.2 -0.1,-0.4 -0.2,-0.5 -0.1,-0.2 -0.3,-0.3 -0.4,-0.3 -0.1,0 -0.2,-0.1 -0.3,-0.1 -0.1,0 -0.2,0 -0.2,0 -0.3,-0.1 -0.4,-0.1 -0.4,-0.1 -0.3,-0.1 -0.5,-0.2 -0.7,-0.4 -0.5,-0.5 -0.7,-1 -0.7,-1.7 0,-0.5 0.2,-1 0.6,-1.5 0.2,-0.3 0.5,-0.5 0.9,-0.7 0.3,-0.1 0.6,-0.2 1,-0.2 0.5,0 1,0.1 1.4,0.3 0.4,0.2 0.6,0.5 0.8,0.8 0.1,0.2 0.2,0.5 0.2,0.7 0,0.2 0,0.4 -0.1,0.6 l 0,0 c -0.3,0.1 -0.6,0.1 -0.9,0.1 -0.3,0 -0.5,0 -0.7,-0.1 0,-0.1 0,-0.1 0,-0.2 0,-0.2 -0.1,-0.3 -0.2,-0.4 -0.4,0 -0.5,0 -0.6,0 -0.5,0 -0.8,0.3 -0.7,0.8 0,0.2 0.3,0.4 0.7,0.4 0.4,0 0.7,0.2 1.1,0.4 0.3,0.2 0.6,0.5 0.8,0.8 0.3,0.4 0.4,0.7 0.4,1.2 0,0.4 -0.1,0.8 -0.2,1.1 -0.2,0.39999999 -0.4,0.69999999 -0.8,0.89999999 -0.4,0.2 -0.8,0.3 -1.2,0.3 -0.5,0 -0.9,-0.1 -1.3,-0.3 -0.4,-0.2 -0.7,-0.4 -1,-0.79999999 -0.2,-0.3 -0.4,-0.7 -0.4,-1.1 0,0 0,-0.1 0,-0.1 l 0,-0.1 c 0,0.1 0.2,0.1 0.4,0.1 z"
         id="path51"
         style="fill:#f7f9f9;fill-opacity:1"
         inkscape:connector-curvature="0" /><path
         d="m 12.0998,-6.6999939 c 0.1,0 0.2,0 0.2,0 0,0 0.1,0 0.3,0 0.2,0 0.4,0 0.8,-0.1 l 0.9,3.8 0.8,3.79999999 0,0 c -0.2,0 -0.4,0.1 -0.6,0.1 -0.2,0 -0.5,0 -0.8,-0.1 l 0,0 c -0.1,-0.1 -0.1,-0.4 -0.2,-0.89999999 -0.1,-0.4 -0.2,-0.7 -0.3,-0.9 0,0 -0.1,0 -0.2,0 l -0.5,0 c -0.1,0.1 -0.1,0.4 -0.2,0.9 -0.1,0.39999999 -0.2,0.79999999 -0.3,0.89999999 -0.1,0 -0.1,0 -0.2,0 l -1.3,0 c 0,0 0,0 0,0 0,0 0.1,-0.4 0.2,-1.19999999 0.1,-0.8 0.3,-1.8 0.6,-3 0.2,-1.2 0.5,-2.3 0.8,-3.3 z m 0.3,4.5 c 0.3,0 0.5,0 0.8,0 -0.2,-1.5 -0.3,-2.2 -0.4,-2.2 0,0 -0.1,0.1 -0.1,0.2 -0.1,0 -0.2,0.7 -0.3,2 z"
         id="path53"
         style="fill:#f7f9f9;fill-opacity:1"
         inkscape:connector-curvature="0" /><path
         d="m 19.9998,-0.1999939 0,0.69999999 c 0,0.1 0,0.2 0,0.2 0,0.1 -0.1,0.1 -0.1,0.1 0,0 -0.1,0 -0.1,0 l -0.1,0 c 0,0 -0.1,0 -0.2,0 l -2.2,0 c -0.5,0 -1.1,0 -1.9,0 l 0,-0.2 c 0.1,-2.19999999 0.1,-3.39999999 0.1,-3.69999999 l -0.1,-3.7 c 0.1,-0.1 0.4,-0.1 0.8,-0.1 0.4,0 0.7,0 0.9,0.1 0,0.3 0,0.7 0,1.3 l 0,4 c 0,0.2 0,0.4 0,0.6 l 0,0 c 0,0 0.1,0 0.3,0 l 2.3,0.1 c 0.1,0 0.1,0 0.1,0 l 0.2,0.6 z"
         id="path55"
         style="fill:#f7f9f9;fill-opacity:1"
         inkscape:connector-curvature="0" /><path
         d="m 20.6998,0.80000609 0,-1.49999999 c 0,-1.4 0,-2.8 -0.1,-4.2 l 0,0 c -0.1,-0.1 -0.3,-0.1 -0.7,-0.1 -0.4,0 -0.5,0 -0.6,0 0,-0.1 -0.1,-0.3 -0.1,-0.7 0,-0.4 0,-0.7 0,-1 l 0,0 c 0.5,0 1,0 1.4,0 0.4,0 0.9,0 1.4,0 0.5,0 1.1,0 1.7,0.1 0,0.2 0,0.5 0,0.8 0,0.3 0,0.6 -0.1,0.9 -0.1,0 -0.2,0 -0.5,0 -0.2,0 -0.5,0 -0.9,0 l 0,0 c 0,0 0,0.4 0,1 0,0.6 0,2.2 0.1,4.69999999 l 0,0 c -0.2,0 -0.4,0 -0.8,0 l -0.3,0 c -0.3,0 -0.6,0 -0.7,0 0.2,0.1 0.2,0 0.2,0 z"
         id="path57"
         style="fill:#f7f9f9;fill-opacity:1"
         inkscape:connector-curvature="0" /><path
         d="m 30.7998,-0.1999939 0,0.69999999 c 0,0.1 0,0.2 0,0.2 0,0.1 -0.1,0.1 -0.1,0.1 0,0 -0.1,0 -0.1,0 l -0.1,0 c 0,0 -0.1,0 -0.2,0 l -2.2,0 c -0.5,0 -1.1,0 -1.9,0 l 0,-0.2 c 0.1,-2.19999999 0.1,-3.39999999 0.1,-3.69999999 l -0.1,-3.7 c 0.1,-0.1 0.4,-0.1 0.8,-0.1 0.4,0 0.7,0 0.9,0.1 0,0.3 0,0.7 0,1.3 l 0,4 c 0,0.2 0,0.4 0,0.6 l 0,0 c 0,0 0.1,0 0.3,0 l 2.3,0.1 c 0.1,0 0.1,0 0.1,0 l 0.2,0.6 z"
         id="path59"
         style="fill:#f7f9f9;fill-opacity:1"
         inkscape:connector-curvature="0" /><path
         d="m 32.5998,-6.6999939 c 0.1,0 0.2,0 0.2,0 0,0 0.1,0 0.3,0 0.2,0 0.4,0 0.8,-0.1 l 0.9,3.8 0.8,3.79999999 0,0 c -0.2,0 -0.4,0.1 -0.6,0.1 -0.2,0 -0.5,0 -0.8,-0.1 l 0,0 c -0.1,-0.1 -0.1,-0.4 -0.2,-0.89999999 -0.1,-0.4 -0.2,-0.7 -0.3,-0.9 0,0 -0.1,0 -0.2,0 l -0.5,0 c -0.1,0.1 -0.1,0.4 -0.2,0.9 -0.1,0.39999999 -0.2,0.79999999 -0.3,0.89999999 -0.1,0 -0.1,0 -0.2,0 l -1.3,0 c 0,0 0,0 0,0 0,0 0.1,-0.4 0.2,-1.19999999 0.1,-0.8 0.3,-1.8 0.6,-3 0.2,-1.2 0.5,-2.3 0.8,-3.3 z m 0.3,4.5 c 0.3,0 0.5,0 0.8,0 -0.2,-1.5 -0.3,-2.2 -0.4,-2.2 0,0 -0.1,0.1 -0.1,0.2 0,0 -0.1,0.7 -0.3,2 z"
         id="path61"
         style="fill:#f7f9f9;fill-opacity:1"
         inkscape:connector-curvature="0" /><path
         d="m 40.4998,0.80000609 c -0.2,0 -0.4,0.1 -0.6,0.1 l -0.9,0 c -0.2,-0.3 -0.5,-0.8 -0.9,-1.49999999 -0.3,-0.7 -0.6,-1.2 -0.6,-1.3 0,0.1 0,0.3 0,0.5 l 0,2.19999999 c -0.2,0.1 -0.4,0.1 -0.5,0.1 -0.5,0 -0.8,0 -1,-0.1 0,-0.2 -0.1,-0.7999999973486 -0.1,-1.69999999 l 0.1,-5.8 c 0.1,0 0.2,0 0.2,0 l 1.2,0 c 0,0.3 0,0.7 0,1.3 0,0.6 0,1 0,1.3 0,0 0.1,-0.1 0.2,-0.2 0.1,-0.2 0.3,-0.5 0.6,-1.1 0.3,-0.6 0.6,-1 0.7,-1.3 0.1,0 0.1,0 0.3,0 l 0.8,0 c 0.3,0 0.4,0 0.5,0 -0.1,0.5 -0.4,1.1 -0.9,1.9 -0.5,0.8 -0.8,1.4 -0.9,1.7 l 1.8,3.89999999 z"
         id="path63"
         style="fill:#f7f9f9;fill-opacity:1"
         inkscape:connector-curvature="0" /><path
         d="m 42.6998,-0.6999939 2.4,0.1 c 0.2,0 0.3,0 0.5,0 l 0,0 c 0,0.2 0,0.4 0,0.5999999926514 0,0.2999999973486 0,0.4999999973486 -0.1,0.7999999973486 l -3.1,0 c -0.5,0 -0.9,0 -1.4,-0.1 l -0.1,-4.99999999 c 0,-0.8 0,-1.6 0.1,-2.3 1.2,-0.1 2.3,-0.1 3.1,-0.1 0.9,0 1.3,0 1.3,0 0,0.2 0,0.3 0,0.5 l 0,1 0,0 c -0.3,0.2 -0.7,0.2 -1.2,0.2 l -0.6,0 c -0.4,0 -0.7,0 -1,0 l 0,0 0,0 0,0.9 c 0,0.2 0,0.3 0.1,0.3 0.4,0 0.8,0 1.3,0 l 0,0 c 0,0 0,0.2 0,0.5 l 0,1 c -0.2,0 -0.4,0.1 -0.7,0.1 -0.3,0 -0.5,0 -0.6,0.1 0,0.2 0,0.3 0,0.6 -0.1,0.3 -0.1,0.5 0,0.8 l 0,0 z"
         id="path65"
         style="fill:#f7f9f9;fill-opacity:1"
         inkscape:connector-curvature="0" /></g></g></svg>